<mxfile host="app.diagrams.net" agent="Mozilla/5.0 (Windows NT 10.0; Win64; x64; rv:133.0) Gecko/20100101 Firefox/133.0" version="26.0.3">
  <diagram name="Page-1" id="GlXqFaxoUYMYu_TTnkdI">
    <mxGraphModel dx="2643" dy="2033" grid="1" gridSize="10" guides="1" tooltips="1" connect="1" arrows="1" fold="1" page="1" pageScale="1" pageWidth="850" pageHeight="1100" math="0" shadow="0">
      <root>
        <mxCell id="0" />
        <mxCell id="1" parent="0" />
        <mxCell id="0Ugnyw1iToyLiCo8Tp_R-6" value="ARENA_ADMIN" style="swimlane;childLayout=stackLayout;horizontal=1;startSize=50;horizontalStack=0;rounded=1;fontSize=14;fontStyle=0;strokeWidth=2;resizeParent=0;resizeLast=1;shadow=0;dashed=0;align=center;arcSize=4;whiteSpace=wrap;html=1;" parent="1" vertex="1">
          <mxGeometry x="-680" y="-220" width="160" height="160" as="geometry" />
        </mxCell>
        <mxCell id="0Ugnyw1iToyLiCo8Tp_R-7" value="&lt;div&gt;id : Long&lt;br&gt;&lt;/div&gt;&lt;div&gt;username : String&lt;br&gt;&lt;/div&gt;&lt;div&gt;password : String&lt;br&gt;&lt;/div&gt;&lt;div&gt;adminName : String&lt;br&gt;&lt;/div&gt;&lt;div&gt;adminPhone : Long&lt;br&gt;&lt;/div&gt;&lt;div&gt;roles : String&lt;br&gt;&lt;/div&gt;" style="align=left;strokeColor=none;fillColor=none;spacingLeft=4;fontSize=12;verticalAlign=top;resizable=0;rotatable=0;part=1;html=1;" parent="0Ugnyw1iToyLiCo8Tp_R-6" vertex="1">
          <mxGeometry y="50" width="160" height="110" as="geometry" />
        </mxCell>
        <mxCell id="0Ugnyw1iToyLiCo8Tp_R-8" value="ARENA_MANAGERS" style="swimlane;childLayout=stackLayout;horizontal=1;startSize=50;horizontalStack=0;rounded=1;fontSize=14;fontStyle=0;strokeWidth=2;resizeParent=0;resizeLast=1;shadow=0;dashed=0;align=center;arcSize=4;whiteSpace=wrap;html=1;" parent="1" vertex="1">
          <mxGeometry x="-470" y="60" width="160" height="180" as="geometry" />
        </mxCell>
        <mxCell id="0Ugnyw1iToyLiCo8Tp_R-9" value="&lt;div&gt;id : Long&lt;br&gt;&lt;/div&gt;&lt;div&gt;username : String&lt;br&gt;&lt;/div&gt;&lt;div&gt;password : String&lt;br&gt;&lt;/div&gt;&lt;div&gt;managerName : String&lt;/div&gt;&lt;div&gt;managerEmail : String&lt;/div&gt;&lt;div&gt;managerPhone : Long&lt;/div&gt;&lt;div&gt;managerDOB : LocalDate&lt;/div&gt;" style="align=left;strokeColor=none;fillColor=none;spacingLeft=4;fontSize=12;verticalAlign=top;resizable=0;rotatable=0;part=1;html=1;" parent="0Ugnyw1iToyLiCo8Tp_R-8" vertex="1">
          <mxGeometry y="50" width="160" height="130" as="geometry" />
        </mxCell>
        <mxCell id="0Ugnyw1iToyLiCo8Tp_R-10" value="ARENA_COMPANYS" style="swimlane;childLayout=stackLayout;horizontal=1;startSize=50;horizontalStack=0;rounded=1;fontSize=14;fontStyle=0;strokeWidth=2;resizeParent=0;resizeLast=1;shadow=0;dashed=0;align=center;arcSize=4;whiteSpace=wrap;html=1;" parent="1" vertex="1">
          <mxGeometry x="10" y="-290" width="160" height="210" as="geometry" />
        </mxCell>
        <mxCell id="0Ugnyw1iToyLiCo8Tp_R-11" value="&lt;div&gt;id : Long&lt;br&gt;&lt;/div&gt;&lt;div&gt;username : String&lt;br&gt;&lt;/div&gt;&lt;div&gt;password : String&lt;br&gt;&lt;/div&gt;&lt;div&gt;companyName : String&lt;br&gt;&lt;/div&gt;&lt;div&gt;gstNumber : String&lt;/div&gt;&lt;div&gt;companyEmail : String&lt;/div&gt;&lt;div&gt;totalEmployees : Integer&lt;br&gt;&lt;/div&gt;&lt;div&gt;consumedTime: Double&lt;br&gt;&lt;/div&gt;&lt;div&gt;allotedFreeTime : Double&lt;/div&gt;&lt;div&gt;totalCharge : Double&lt;br&gt;&lt;/div&gt;" style="align=left;strokeColor=none;fillColor=none;spacingLeft=4;fontSize=12;verticalAlign=top;resizable=0;rotatable=0;part=1;html=1;" parent="0Ugnyw1iToyLiCo8Tp_R-10" vertex="1">
          <mxGeometry y="50" width="160" height="160" as="geometry" />
        </mxCell>
        <mxCell id="0Ugnyw1iToyLiCo8Tp_R-12" value="ARENA_ROOMS" style="swimlane;childLayout=stackLayout;horizontal=1;startSize=50;horizontalStack=0;rounded=1;fontSize=14;fontStyle=0;strokeWidth=2;resizeParent=0;resizeLast=1;shadow=0;dashed=0;align=center;arcSize=4;whiteSpace=wrap;html=1;" parent="1" vertex="1">
          <mxGeometry x="-20" y="60" width="160" height="120" as="geometry" />
        </mxCell>
        <mxCell id="0Ugnyw1iToyLiCo8Tp_R-13" value="&lt;div&gt;id : Long&lt;br&gt;&lt;/div&gt;&lt;div&gt;roomType: String&lt;br&gt;&lt;/div&gt;&lt;div&gt;sittingCapacity: Integer&lt;br&gt;&lt;/div&gt;&lt;div&gt;chargePerHour : Double&lt;br&gt;&lt;/div&gt;" style="align=left;strokeColor=none;fillColor=none;spacingLeft=4;fontSize=12;verticalAlign=top;resizable=0;rotatable=0;part=1;html=1;" parent="0Ugnyw1iToyLiCo8Tp_R-12" vertex="1">
          <mxGeometry y="50" width="160" height="70" as="geometry" />
        </mxCell>
        <mxCell id="0Ugnyw1iToyLiCo8Tp_R-21" value="" style="edgeStyle=entityRelationEdgeStyle;fontSize=12;html=1;endArrow=ERoneToMany;rounded=0;entryX=0;entryY=0.25;entryDx=0;entryDy=0;exitX=1;exitY=0.5;exitDx=0;exitDy=0;" parent="1" source="0Ugnyw1iToyLiCo8Tp_R-8" edge="1">
          <mxGeometry width="100" height="100" relative="1" as="geometry">
            <mxPoint x="-240" y="147.5" as="sourcePoint" />
            <mxPoint x="90" y="-105" as="targetPoint" />
          </mxGeometry>
        </mxCell>
        <mxCell id="0Ugnyw1iToyLiCo8Tp_R-26" value="BOOKING_INFO" style="swimlane;childLayout=stackLayout;horizontal=1;startSize=50;horizontalStack=0;rounded=1;fontSize=14;fontStyle=0;strokeWidth=2;resizeParent=0;resizeLast=1;shadow=0;dashed=0;align=center;arcSize=4;whiteSpace=wrap;html=1;" parent="1" vertex="1">
          <mxGeometry x="310" y="-40" width="170" height="120" as="geometry" />
        </mxCell>
        <mxCell id="0Ugnyw1iToyLiCo8Tp_R-27" value="&lt;div&gt;id : Long&lt;br&gt;&lt;/div&gt;&lt;div&gt;bookedOn : LocalDateTime&lt;/div&gt;&lt;div&gt;bookedUpto : LocalDateTime&lt;/div&gt;&lt;div&gt;totalCharge : Double&lt;br&gt;&lt;/div&gt;" style="align=left;strokeColor=none;fillColor=none;spacingLeft=4;fontSize=12;verticalAlign=top;resizable=0;rotatable=0;part=1;html=1;" parent="0Ugnyw1iToyLiCo8Tp_R-26" vertex="1">
          <mxGeometry y="50" width="170" height="70" as="geometry" />
        </mxCell>
        <mxCell id="0Ugnyw1iToyLiCo8Tp_R-29" value="" style="edgeStyle=entityRelationEdgeStyle;fontSize=12;html=1;endArrow=ERmany;startArrow=ERmany;rounded=0;entryX=0;entryY=0.25;entryDx=0;entryDy=0;exitX=1;exitY=0.75;exitDx=0;exitDy=0;" parent="1" source="0Ugnyw1iToyLiCo8Tp_R-11" target="0Ugnyw1iToyLiCo8Tp_R-26" edge="1">
          <mxGeometry width="100" height="100" relative="1" as="geometry">
            <mxPoint x="330" y="250" as="sourcePoint" />
            <mxPoint x="430" y="150" as="targetPoint" />
          </mxGeometry>
        </mxCell>
        <mxCell id="0Ugnyw1iToyLiCo8Tp_R-30" value="ARENA_FLOORS" style="swimlane;childLayout=stackLayout;horizontal=1;startSize=50;horizontalStack=0;rounded=1;fontSize=14;fontStyle=0;strokeWidth=2;resizeParent=0;resizeLast=1;shadow=0;dashed=0;align=center;arcSize=4;whiteSpace=wrap;html=1;" parent="1" vertex="1">
          <mxGeometry x="-320" y="-280" width="190" height="140" as="geometry" />
        </mxCell>
        <mxCell id="0Ugnyw1iToyLiCo8Tp_R-31" value="&lt;div&gt;floorId : Long&lt;br&gt;&lt;/div&gt;&lt;div&gt;floorName : String &lt;br&gt;&lt;/div&gt;&lt;div&gt;totalCompanies : Integer&lt;br&gt;&lt;/div&gt;&lt;div&gt; totalConferenceRooms: Integer&lt;/div&gt;&lt;div&gt; totalMeetingRooms : Integer&lt;/div&gt;" style="align=left;strokeColor=none;fillColor=none;spacingLeft=4;fontSize=12;verticalAlign=top;resizable=0;rotatable=0;part=1;html=1;" parent="0Ugnyw1iToyLiCo8Tp_R-30" vertex="1">
          <mxGeometry y="50" width="190" height="90" as="geometry" />
        </mxCell>
        <mxCell id="0Ugnyw1iToyLiCo8Tp_R-38" value="" style="edgeStyle=entityRelationEdgeStyle;fontSize=12;html=1;endArrow=ERoneToMany;rounded=0;entryX=0;entryY=0.091;entryDx=0;entryDy=0;entryPerimeter=0;exitX=1.005;exitY=0.223;exitDx=0;exitDy=0;exitPerimeter=0;" parent="1" source="0Ugnyw1iToyLiCo8Tp_R-6" target="0Ugnyw1iToyLiCo8Tp_R-31" edge="1">
          <mxGeometry width="100" height="100" relative="1" as="geometry">
            <mxPoint x="-475" y="-60" as="sourcePoint" />
            <mxPoint x="-375" y="-160" as="targetPoint" />
          </mxGeometry>
        </mxCell>
        <mxCell id="0Ugnyw1iToyLiCo8Tp_R-39" value="" style="edgeStyle=entityRelationEdgeStyle;fontSize=12;html=1;endArrow=ERoneToMany;rounded=0;entryX=0;entryY=0.75;entryDx=0;entryDy=0;exitX=1;exitY=0.25;exitDx=0;exitDy=0;" parent="1" source="0Ugnyw1iToyLiCo8Tp_R-7" target="0Ugnyw1iToyLiCo8Tp_R-9" edge="1">
          <mxGeometry width="100" height="100" relative="1" as="geometry">
            <mxPoint x="-290" y="60" as="sourcePoint" />
            <mxPoint x="-190" y="-40" as="targetPoint" />
          </mxGeometry>
        </mxCell>
        <mxCell id="0Ugnyw1iToyLiCo8Tp_R-40" value="" style="edgeStyle=entityRelationEdgeStyle;fontSize=12;html=1;endArrow=ERoneToMany;rounded=0;exitX=1;exitY=0.75;exitDx=0;exitDy=0;entryX=0;entryY=0.25;entryDx=0;entryDy=0;" parent="1" source="0Ugnyw1iToyLiCo8Tp_R-9" target="0Ugnyw1iToyLiCo8Tp_R-13" edge="1">
          <mxGeometry width="100" height="100" relative="1" as="geometry">
            <mxPoint x="60" y="153" as="sourcePoint" />
            <mxPoint x="20" y="80" as="targetPoint" />
          </mxGeometry>
        </mxCell>
        <mxCell id="0Ugnyw1iToyLiCo8Tp_R-46" value="" style="edgeStyle=entityRelationEdgeStyle;fontSize=12;html=1;endArrow=ERoneToMany;rounded=0;exitX=1.002;exitY=0.443;exitDx=0;exitDy=0;entryX=0;entryY=0.152;entryDx=0;entryDy=0;entryPerimeter=0;exitPerimeter=0;" parent="1" source="0Ugnyw1iToyLiCo8Tp_R-31" target="0Ugnyw1iToyLiCo8Tp_R-10" edge="1">
          <mxGeometry width="100" height="100" relative="1" as="geometry">
            <mxPoint x="10" y="70" as="sourcePoint" />
            <mxPoint x="80" y="80" as="targetPoint" />
            <Array as="points">
              <mxPoint x="50" y="40" />
            </Array>
          </mxGeometry>
        </mxCell>
        <mxCell id="0Ugnyw1iToyLiCo8Tp_R-48" value="" style="edgeStyle=entityRelationEdgeStyle;fontSize=12;html=1;endArrow=ERmany;startArrow=ERmany;rounded=0;exitX=1.007;exitY=0.19;exitDx=0;exitDy=0;entryX=0;entryY=0.75;entryDx=0;entryDy=0;exitPerimeter=0;" parent="1" source="0Ugnyw1iToyLiCo8Tp_R-12" target="0Ugnyw1iToyLiCo8Tp_R-26" edge="1">
          <mxGeometry width="100" height="100" relative="1" as="geometry">
            <mxPoint x="290" y="110" as="sourcePoint" />
            <mxPoint x="330" as="targetPoint" />
          </mxGeometry>
        </mxCell>
        <mxCell id="0Ugnyw1iToyLiCo8Tp_R-53" value="" style="edgeStyle=entityRelationEdgeStyle;fontSize=12;html=1;endArrow=ERmandOne;startArrow=ERmandOne;rounded=0;exitX=0;exitY=0.75;exitDx=0;exitDy=0;entryX=1;entryY=0;entryDx=0;entryDy=0;" parent="1" source="0Ugnyw1iToyLiCo8Tp_R-31" target="0Ugnyw1iToyLiCo8Tp_R-9" edge="1">
          <mxGeometry width="100" height="100" relative="1" as="geometry">
            <mxPoint x="-39.999999999999545" y="-80" as="sourcePoint" />
            <mxPoint x="-29.999999999999545" y="79.99999999999909" as="targetPoint" />
            <Array as="points">
              <mxPoint x="4.547473508864641e-13" y="120" />
            </Array>
          </mxGeometry>
        </mxCell>
        <mxCell id="0Ugnyw1iToyLiCo8Tp_R-60" value="Invoice" style="swimlane;childLayout=stackLayout;horizontal=1;startSize=50;horizontalStack=0;rounded=1;fontSize=14;fontStyle=0;strokeWidth=2;resizeParent=0;resizeLast=1;shadow=0;dashed=0;align=center;arcSize=4;whiteSpace=wrap;html=1;" parent="1" vertex="1">
          <mxGeometry x="490" y="-200" width="175" height="120" as="geometry" />
        </mxCell>
        <mxCell id="0Ugnyw1iToyLiCo8Tp_R-61" value="&lt;div&gt;invoiceId : Long&lt;/div&gt;&lt;div&gt;companyName : String&lt;/div&gt;&lt;div&gt;totalTimeConsumed : Double&lt;/div&gt;&lt;div&gt;totalCharge : Double&lt;br&gt;&lt;/div&gt;" style="align=left;strokeColor=none;fillColor=none;spacingLeft=4;fontSize=12;verticalAlign=top;resizable=0;rotatable=0;part=1;html=1;" parent="0Ugnyw1iToyLiCo8Tp_R-60" vertex="1">
          <mxGeometry y="50" width="175" height="70" as="geometry" />
        </mxCell>
        <mxCell id="0Ugnyw1iToyLiCo8Tp_R-62" value="" style="edgeStyle=entityRelationEdgeStyle;fontSize=12;html=1;endArrow=ERmandOne;startArrow=ERmandOne;rounded=0;exitX=1;exitY=0.25;exitDx=0;exitDy=0;entryX=0;entryY=0.25;entryDx=0;entryDy=0;" parent="1" source="0Ugnyw1iToyLiCo8Tp_R-11" target="0Ugnyw1iToyLiCo8Tp_R-61" edge="1">
          <mxGeometry width="100" height="100" relative="1" as="geometry">
            <mxPoint x="330" y="270" as="sourcePoint" />
            <mxPoint x="430" y="170" as="targetPoint" />
          </mxGeometry>
        </mxCell>
        <mxCell id="0Ugnyw1iToyLiCo8Tp_R-65" value="&lt;b&gt;&amp;nbsp; RESERVE ARENA ER-Diagram&amp;nbsp;&amp;nbsp; &lt;br&gt;&lt;/b&gt;" style="text;strokeColor=none;fillColor=none;spacingLeft=0;spacingRight=0;overflow=hidden;rotatable=0;points=[[0,0.5],[1,0.5]];portConstraint=eastwest;fontSize=36;whiteSpace=wrap;html=1;align=center;labelBorderColor=#0066CC;textShadow=1;spacingTop=0;spacing=0;" parent="1" vertex="1">
          <mxGeometry x="-350" y="-384" width="575" height="60" as="geometry" />
        </mxCell>
        <mxCell id="0Ugnyw1iToyLiCo8Tp_R-66" value="" style="edgeStyle=entityRelationEdgeStyle;fontSize=12;html=1;endArrow=ERoneToMany;rounded=0;exitX=1;exitY=0.75;exitDx=0;exitDy=0;entryX=0;entryY=0.25;entryDx=0;entryDy=0;" parent="1" source="0Ugnyw1iToyLiCo8Tp_R-31" target="0Ugnyw1iToyLiCo8Tp_R-12" edge="1">
          <mxGeometry width="100" height="100" relative="1" as="geometry">
            <mxPoint x="-10" y="-200" as="sourcePoint" />
            <mxPoint x="140" y="57" as="targetPoint" />
            <Array as="points">
              <mxPoint x="80" y="-15" />
            </Array>
          </mxGeometry>
        </mxCell>
        <mxCell id="0Ugnyw1iToyLiCo8Tp_R-70" value="Employee" style="swimlane;childLayout=stackLayout;horizontal=1;startSize=50;horizontalStack=0;rounded=1;fontSize=14;fontStyle=0;strokeWidth=2;resizeParent=0;resizeLast=1;shadow=0;dashed=0;align=center;arcSize=4;whiteSpace=wrap;html=1;" parent="1" vertex="1">
          <mxGeometry x="315" y="-350" width="160" height="160" as="geometry" />
        </mxCell>
        <mxCell id="0Ugnyw1iToyLiCo8Tp_R-71" value="&lt;div&gt;empId : Long&lt;/div&gt;&lt;div&gt;employeeName : String&lt;/div&gt;&lt;div&gt;employeePhone : Long&lt;br&gt;&lt;/div&gt;&lt;div&gt;workEmail : String&lt;/div&gt;" style="align=left;strokeColor=none;fillColor=none;spacingLeft=4;fontSize=12;verticalAlign=top;resizable=0;rotatable=0;part=1;html=1;" parent="0Ugnyw1iToyLiCo8Tp_R-70" vertex="1">
          <mxGeometry y="50" width="160" height="110" as="geometry" />
        </mxCell>
        <mxCell id="0Ugnyw1iToyLiCo8Tp_R-72" value="" style="edgeStyle=entityRelationEdgeStyle;fontSize=12;html=1;endArrow=ERoneToMany;rounded=0;entryX=0;entryY=0.25;entryDx=0;entryDy=0;exitX=1;exitY=0.25;exitDx=0;exitDy=0;" parent="1" source="0Ugnyw1iToyLiCo8Tp_R-10" target="0Ugnyw1iToyLiCo8Tp_R-70" edge="1">
          <mxGeometry width="100" height="100" relative="1" as="geometry">
            <mxPoint x="250" y="-30" as="sourcePoint" />
            <mxPoint x="350" y="-130" as="targetPoint" />
          </mxGeometry>
        </mxCell>
      </root>
    </mxGraphModel>
  </diagram>
</mxfile>
